<svg width="536" height="429" viewBox="0 0 536 429" fill="none" xmlns="http://www.w3.org/2000/svg">
<g clip-path="url(#clip0_840_55042)">
<circle cx="219.945" cy="284.621" r="0.924138" fill="white"/>
<circle cx="126.607" cy="296.634" r="0.924138" fill="white"/>
<path opacity="0.8" d="M253.045 224.496C252.484 222.402 253.579 219.96 256.058 217.68C258.519 215.417 262.252 213.411 266.677 212.225C271.102 211.04 275.338 210.911 278.601 211.64C281.888 212.375 284.057 213.942 284.618 216.036C285.179 218.13 284.084 220.572 281.605 222.852C279.144 225.115 275.411 227.121 270.986 228.307C266.561 229.492 262.325 229.621 259.062 228.892C255.775 228.157 253.606 226.59 253.045 224.496Z" stroke="white" stroke-width="0.924138"/>
<path opacity="0.8" d="M144.515 253.576C139.755 235.812 149.197 215.93 168.565 198.118C187.914 180.324 217.078 164.696 251.473 155.48C285.869 146.263 318.939 145.216 344.594 150.951C370.272 156.693 388.39 169.191 393.15 186.954C397.91 204.718 388.468 224.601 369.1 242.412C349.751 260.206 320.587 275.834 286.192 285.051C251.796 294.267 218.726 295.315 193.071 289.579C167.393 283.838 149.275 271.34 144.515 253.576Z" stroke="white" stroke-width="0.924138"/>
<path opacity="0.8" d="M191.781 240.912C188.849 229.972 194.656 217.685 206.669 206.637C218.663 195.607 236.752 185.911 258.095 180.192C279.439 174.473 299.952 173.826 315.854 177.381C331.782 180.942 342.954 188.68 345.885 199.619C348.816 210.559 343.01 222.846 330.997 233.893C319.002 244.924 300.914 254.62 279.57 260.339C258.227 266.058 237.714 266.705 221.811 263.15C205.884 259.589 194.712 251.851 191.781 240.912Z" stroke="white" stroke-width="0.924138"/>
<path opacity="0.8" d="M64.4545 275.029C56.5975 245.706 72.196 212.957 104.022 183.689C135.83 154.437 183.754 128.761 240.258 113.621C296.762 98.4807 351.103 96.7553 393.275 106.184C435.472 115.618 465.355 136.18 473.212 165.503C481.069 194.825 465.47 227.574 433.644 256.843C401.836 286.094 353.912 311.771 297.409 326.911C240.905 342.051 186.564 343.776 144.391 334.348C102.195 324.914 72.3115 304.352 64.4545 275.029Z" stroke="white" stroke-width="0.924138"/>
<path opacity="0.8" d="M5.50105 290.825C-4.63662 252.991 15.4956 210.768 56.4957 173.063C97.4775 135.375 159.215 102.3 231.998 82.7979C304.781 63.2957 374.785 61.0712 429.12 73.219C483.48 85.3723 522.026 111.872 532.164 149.706C542.301 187.541 522.169 229.763 481.169 267.468C440.187 305.156 378.45 338.232 305.667 357.734C232.884 377.236 162.88 379.46 108.545 367.313C54.1851 355.159 15.6387 328.659 5.50105 290.825Z" stroke="white" stroke-width="0.924138"/>
<g filter="url(#filter0_f_840_55042)">
<ellipse cx="339.621" cy="241.186" rx="110.434" ry="110.897" fill="#4E2184"/>
</g>
<g filter="url(#filter1_f_840_55042)">
<ellipse cx="192.683" cy="181.117" rx="103.041" ry="103.503" fill="#67166C"/>
</g>
<path d="M112.272 103.739C127.521 103.739 141.825 106.061 154.176 110.12V161.167C141.825 157.108 127.521 154.786 112.272 154.786C81.8743 154.786 55.2289 164.005 40.3249 177.838C32.3308 170.421 27.7242 161.683 27.7242 152.314C27.7342 125.484 65.5863 103.739 112.272 103.739Z" fill="url(#paint0_linear_840_55042)"/>
<path d="M27.9896 223.228C27.9071 223.133 27.8187 223.042 27.7248 222.958L28.1145 210.156C28.0346 209.28 27.9896 208.399 27.9896 207.514C27.9896 206.628 28.0396 205.657 28.1295 204.736V157.597C28.9539 165.895 33.4056 173.637 40.5903 180.308V233.027C35.7754 230.642 31.4898 227.309 27.9896 223.228Z" fill="#F88FFF"/>
<path d="M152.281 100.007C149.198 95.7179 145.986 98.8508 145.986 98.8508C135.743 86.9948 119.69 93.3758 119.385 102.81C119.08 112.243 129.018 114.941 129.018 114.941L153.85 121.112C153.85 121.112 155.359 104.311 152.281 100.007Z" fill="#4D28B5"/>
<path opacity="0.2" d="M42.0483 160.786V155.241C47.5932 147.848 56.2185 140.455 60.069 139.531L60.9932 144.152C53.138 148.31 44.2047 157.706 42.0483 160.786Z" fill="#ECF1FF"/>
<path opacity="0.2" d="M40.2 145.538C62.3793 110.883 116.903 115.157 117.828 116.081V121.625C78.2744 118.298 50.5195 140.57 41.5862 152.122L40.2 145.538Z" fill="#ECF1FF"/>
<path d="M144.098 128.455C144.098 128.455 152.892 136.057 154.201 137.613L161.765 123.325C161.765 123.325 149.724 118.37 144.778 115.368L144.098 128.455Z" fill="#F8AE93"/>
<path d="M144.098 128.455L144.762 115.368C147.57 117.069 152.652 119.371 156.534 121.093C154.41 123.05 149.774 126.918 144.543 128.83L144.098 128.455Z" fill="#F8AE93"/>
<path d="M128.764 107.049C128.764 107.049 128.41 117.344 131.263 124.896C131.263 124.896 133.296 132.998 138.882 131.662C144.468 130.326 150.444 125.316 150.568 120.372C150.568 120.372 154.441 116.788 151.887 113.525C151.887 113.525 149.589 111.869 148.185 115.182C148.185 115.182 148.035 108.32 146.631 105.443C146.631 105.443 141.135 102.87 136.689 103.551C132.956 104.111 130.488 106.113 128.764 107.049Z" fill="url(#paint1_linear_840_55042)"/>
<path d="M140.707 99.0223C130.669 98.8071 125.793 107.465 125.793 107.465L127.591 112.585C127.591 112.585 133.627 117.219 149.685 110.458C149.68 110.438 150.744 99.2375 140.707 99.0223Z" fill="#4D28B5"/>
<path d="M133.457 115.257C144.379 114.376 153.682 105.898 153.682 105.898C153.682 105.898 154.851 108.806 154.277 110.988C154.277 110.988 146.492 119.16 135.216 119.37C134.528 118.047 133.94 116.673 133.457 115.262V115.257Z" fill="#ECF1FF"/>
<path d="M134.956 115.221C134.709 114.946 134.395 114.741 134.044 114.628C133.692 114.514 133.318 114.496 132.957 114.575C131.603 114.791 128.76 115.907 129.025 117.713C129.168 118.737 129.365 119.753 129.615 120.756C129.739 121.266 129.896 121.768 130.084 122.258C130.334 122.883 130.559 123.258 131.288 123.008L132.547 122.558C133.771 122.176 135.024 121.9 136.295 121.732C136.627 121.717 136.946 121.596 137.204 121.387C137.639 120.886 137.104 119.925 136.794 119.205C136.485 118.484 136.18 117.793 135.855 117.088C135.622 116.435 135.321 115.81 134.956 115.221V115.221Z" fill="url(#paint2_linear_840_55042)"/>
<path d="M129.424 121.012C130.328 121.217 131.068 120.777 131.677 120.571C132.847 120.171 134.825 119.806 134.725 118.525C134.548 117.49 134.184 116.496 133.651 115.592C133.496 115.205 133.212 114.884 132.848 114.683C132.484 114.482 132.062 114.412 131.653 114.486C131.023 114.631 130.414 114.853 129.839 115.146C128.5 115.737 127.64 116.788 127.735 118.209C127.795 118.85 127.96 120.687 129.424 121.012Z" fill="url(#paint3_linear_840_55042)"/>
<path d="M393.44 156.51L440.266 145.109L473.182 203.218C473.182 203.218 449.084 213.423 435.709 184.11L403.258 190.576L393.44 156.51Z" fill="url(#paint4_linear_840_55042)"/>
<path d="M467.575 204.639L434.35 146.555" stroke="white" stroke-width="0.822483" stroke-miterlimit="10"/>
<path d="M248.267 149.324C248.267 149.324 273.204 143.739 285.68 160.414L317.581 172.476L398.981 150.635L414.64 193.255L293.973 226.941L233.678 185.793L248.267 149.324Z" fill="url(#paint5_linear_840_55042)"/>
<path d="M400.56 154.939L314.029 178.576L281.588 166.1C281.588 166.1 259.709 152.037 245.519 148.283" stroke="white" stroke-width="0.822483" stroke-miterlimit="10"/>
<path d="M371.407 238.531L419.137 245.188L428.405 311.349C428.405 311.349 402.259 311.955 400.586 279.77L368.045 273.829L371.407 238.531Z" fill="url(#paint6_linear_840_55042)"/>
<path d="M422.674 310.598L413.106 244.342" stroke="white" stroke-width="0.822483" stroke-miterlimit="10"/>
<path d="M283.916 215.207L223.226 170.826L200.638 201.564L257.846 247.962C267.813 256.049 279.558 261.645 292.11 264.287L373.226 281.378L376.371 258.184L379.516 234.99L283.916 215.207Z" fill="url(#paint7_linear_840_55042)"/>
<path d="M379.201 239.617L279.455 219.834L237.181 188.189" stroke="white" stroke-width="0.822483" stroke-miterlimit="10"/>
<path d="M206.958 101.959C206.958 101.959 243.046 96.7236 258.115 93.9861C258.115 93.9861 276.102 91.2285 277.146 92.9852C278.19 94.7418 273.344 98.2451 270.151 99.7264C270.151 99.7264 272.649 99.7264 272.215 100.792C271.78 101.858 268.302 103.98 263.006 103.15L262.172 103.055L182.421 136.03L181.921 106.137L206.958 101.959Z" fill="url(#paint8_linear_840_55042)"/>
<path d="M196.939 130.985L180.207 130.124C180.207 130.124 166.861 131.01 165.158 121.146C163.454 111.282 173.317 102.939 184.493 101.853C195.67 100.767 204.404 100.787 204.404 100.787L203.455 131.265L196.939 130.985Z" fill="url(#paint9_linear_840_55042)"/>
<path d="M141.305 140.059L216.19 221.105L264.39 145.499L168.845 111.708C168.329 111.529 167.772 111.502 167.241 111.63C166.71 111.757 166.226 112.035 165.847 112.429L159.852 117.644C155.542 121.383 151.552 125.478 147.925 129.885C147.925 129.885 141.53 135.82 141.305 140.059Z" fill="url(#paint10_linear_840_55042)"/>
<path d="M257.93 143.212L209.71 214.087" stroke="white" stroke-width="0.822483" stroke-miterlimit="10"/>
<path d="M128.36 157.946C128.36 157.946 110.698 183.469 108.785 187.473C108.785 187.473 75.3092 165.192 68.3144 160.508C68.3144 160.508 63.6628 155.118 61.8191 152.901C59.9755 150.684 54.7144 148.147 53.865 148.277C53.0156 148.407 53.1905 149.883 54.9592 151.78L56.8278 154.077C56.8278 154.077 54.7044 155.003 54.6944 157.19C54.6844 159.377 56.7279 161.974 58.4316 164.126C60.1354 166.278 96.0889 205.97 96.0889 205.97C96.0889 205.97 105.467 217.916 117.913 212.787C117.913 212.787 120.046 212.021 125.008 206.921C129.969 201.821 151.988 174.081 151.988 174.081L128.36 157.946Z" fill="url(#paint11_linear_840_55042)"/>
<path d="M127.156 157.455L136.784 143.718C136.784 143.718 143.134 131.927 152.383 135.71C161.631 139.494 163.435 152.331 158.408 162.39C153.382 172.449 148.725 179.826 148.725 179.826L123.459 162.81L127.156 157.455Z" fill="url(#paint12_linear_840_55042)"/>
<path d="M166.011 211.426L161.815 249.011C141.639 261.227 112.771 268.259 80.5194 267.803L84.4864 232.27C117.272 232.26 146.331 224.488 166.011 211.426Z" fill="url(#paint13_linear_840_55042)"/>
<path d="M190.165 181.204V207.348C176.75 226.951 146.293 241.635 109.265 245.383V219.249C146.303 215.516 176.76 200.822 190.165 181.204Z" fill="url(#paint14_linear_840_55042)"/>
<path d="M28.6484 129.365L28.6575 142.294L41.5863 142.303L28.6575 142.313L28.6484 155.241L28.6392 142.313L15.7104 142.303L28.6392 142.294L28.6484 129.365Z" fill="white"/>
<path d="M406.621 288.317L406.627 296.628L414.938 296.634L406.627 296.64L406.621 304.952L406.615 296.64L398.304 296.634L406.615 296.628L406.621 288.317Z" fill="white"/>
<path d="M434.345 70.2207L434.348 74.8381L438.966 74.8414L434.348 74.8447L434.345 79.4621L434.342 74.8447L429.724 74.8414L434.342 74.8381L434.345 70.2207Z" fill="white"/>
<path d="M182.979 336.372L182.983 340.99L187.6 340.993L182.983 340.996L182.979 345.614L182.976 340.996L178.359 340.993L182.976 340.99L182.979 336.372Z" fill="white"/>
<circle cx="119.214" cy="293.862" r="1.84828" fill="white"/>
<circle cx="325.297" cy="345.614" r="1.84828" fill="white"/>
<circle cx="262.455" cy="269.834" r="1.84828" fill="white"/>
<circle cx="341.007" cy="120.124" r="1.84828" fill="white"/>
<circle cx="354.869" cy="109.034" r="0.924138" fill="white"/>
<circle cx="357.642" cy="139.531" r="0.924138" fill="white"/>
<circle cx="265.228" cy="125.669" r="0.924138" fill="white"/>
</g>
<defs>
<filter id="filter0_f_840_55042" x="136.772" y="37.8758" width="405.697" height="406.621" filterUnits="userSpaceOnUse" color-interpolation-filters="sRGB">
<feFlood flood-opacity="0" result="BackgroundImageFix"/>
<feBlend mode="normal" in="SourceGraphic" in2="BackgroundImageFix" result="shape"/>
<feGaussianBlur stdDeviation="46.2069" result="effect1_foregroundBlur_840_55042"/>
</filter>
<filter id="filter1_f_840_55042" x="-2.77244" y="-14.8" width="390.91" height="391.834" filterUnits="userSpaceOnUse" color-interpolation-filters="sRGB">
<feFlood flood-opacity="0" result="BackgroundImageFix"/>
<feBlend mode="normal" in="SourceGraphic" in2="BackgroundImageFix" result="shape"/>
<feGaussianBlur stdDeviation="46.2069" result="effect1_foregroundBlur_840_55042"/>
</filter>
<linearGradient id="paint0_linear_840_55042" x1="101.656" y1="167.717" x2="75.2007" y2="105.126" gradientUnits="userSpaceOnUse">
<stop stop-color="#683FDC"/>
<stop offset="1" stop-color="#F88FFF"/>
</linearGradient>
<linearGradient id="paint1_linear_840_55042" x1="150.233" y1="108.527" x2="134.42" y2="110.021" gradientUnits="userSpaceOnUse">
<stop stop-color="#FCC9AD"/>
<stop offset="0.98" stop-color="#F59E83"/>
</linearGradient>
<linearGradient id="paint2_linear_840_55042" x1="128.56" y1="126.948" x2="137.029" y2="111.376" gradientUnits="userSpaceOnUse">
<stop stop-color="#CFECB4"/>
<stop offset="1" stop-color="white"/>
</linearGradient>
<linearGradient id="paint3_linear_840_55042" x1="127.531" y1="118.276" x2="134.924" y2="118.276" gradientUnits="userSpaceOnUse">
<stop stop-color="#E9D8EA"/>
<stop offset="1" stop-color="#4D28B5"/>
</linearGradient>
<linearGradient id="paint4_linear_840_55042" x1="458.468" y1="224.03" x2="428.436" y2="155.822" gradientUnits="userSpaceOnUse">
<stop stop-color="#683FDC"/>
<stop offset="1" stop-color="#F5A3FB"/>
</linearGradient>
<linearGradient id="paint5_linear_840_55042" x1="381.249" y1="251.997" x2="355.695" y2="151.637" gradientUnits="userSpaceOnUse">
<stop stop-color="#683FDC"/>
<stop offset="1" stop-color="#F5A3FB"/>
</linearGradient>
<linearGradient id="paint6_linear_840_55042" x1="417.267" y1="334.588" x2="370.527" y2="268.566" gradientUnits="userSpaceOnUse">
<stop stop-color="#683FDC"/>
<stop offset="1" stop-color="#F5A3FB"/>
</linearGradient>
<linearGradient id="paint7_linear_840_55042" x1="346.51" y1="316.658" x2="298.28" y2="183.679" gradientUnits="userSpaceOnUse">
<stop stop-color="#683FDC"/>
<stop offset="1" stop-color="#F5A3FB"/>
</linearGradient>
<linearGradient id="paint8_linear_840_55042" x1="267.259" y1="100.228" x2="207.443" y2="114.824" gradientUnits="userSpaceOnUse">
<stop stop-color="#FCC9AD"/>
<stop offset="0.98" stop-color="#F59E83"/>
</linearGradient>
<linearGradient id="paint9_linear_840_55042" x1="196.381" y1="97.6447" x2="181.455" y2="120.529" gradientUnits="userSpaceOnUse">
<stop stop-color="#B570FB"/>
<stop offset="0.98" stop-color="#4C28B5"/>
</linearGradient>
<linearGradient id="paint10_linear_840_55042" x1="239.352" y1="100.255" x2="183.045" y2="175.208" gradientUnits="userSpaceOnUse">
<stop stop-color="#B570FB"/>
<stop offset="0.98" stop-color="#4C28B5"/>
</linearGradient>
<linearGradient id="paint11_linear_840_55042" x1="141.615" y1="160.076" x2="77.8641" y2="170.743" gradientUnits="userSpaceOnUse">
<stop stop-color="#FCC9AD"/>
<stop offset="0.98" stop-color="#F59E83"/>
</linearGradient>
<linearGradient id="paint12_linear_840_55042" x1="153.485" y1="130.336" x2="129.477" y2="154.235" gradientUnits="userSpaceOnUse">
<stop stop-color="#B570FB"/>
<stop offset="0.98" stop-color="#4C28B5"/>
</linearGradient>
<linearGradient id="paint13_linear_840_55042" x1="143.704" y1="227.786" x2="102.505" y2="272.9" gradientUnits="userSpaceOnUse">
<stop stop-color="#683FDC"/>
<stop offset="1" stop-color="#F88FFF"/>
</linearGradient>
<linearGradient id="paint14_linear_840_55042" x1="170.042" y1="238.414" x2="142.965" y2="193.802" gradientUnits="userSpaceOnUse">
<stop stop-color="#9171E2"/>
<stop offset="0.671875" stop-color="#F88FFF"/>
</linearGradient>
<clipPath id="clip0_840_55042">
<rect width="536" height="429" fill="white"/>
</clipPath>
</defs>
</svg>
